<svg xmlns="http://www.w3.org/2000/svg" xmlns:xlink="http://www.w3.org/1999/xlink" width="500" zoomAndPan="magnify" viewBox="0 0 375 374.999991" height="500" preserveAspectRatio="xMidYMid meet" version="1.0"><defs><g/></defs><rect x="-37.5" width="450" fill="#ffffff" y="-37.499999" height="449.999989" fill-opacity="1"/><rect x="-37.5" width="450" fill="#ffffff" y="-37.499999" height="449.999989" fill-opacity="1"/><g fill="#db0377" fill-opacity="1"><g transform="translate(72.1646, 211.687397)"><g><path d="M 37.367188 -39.78125 C 38.941406 -38.625 39.992188 -38.417969 42.71875 -38.417969 C 48.914062 -38.417969 52.0625 -42.195312 52.0625 -49.855469 C 52.0625 -52.585938 51.222656 -55.421875 49.648438 -57.9375 L 45.554688 -64.445312 C 43.035156 -68.539062 39.257812 -70.324219 33.378906 -70.324219 C 24.035156 -70.324219 16.375 -65.707031 10.496094 -56.46875 C 5.144531 -48.074219 1.785156 -36.105469 1.785156 -25.296875 C 1.785156 -17.214844 4.09375 -11.230469 8.710938 -7.664062 L 16.269531 -1.679688 C 18.367188 0 20.152344 0.628906 22.988281 0.628906 C 32.117188 0.628906 39.464844 -4.304688 43.140625 -12.910156 C 44.503906 -16.058594 45.761719 -20.363281 45.761719 -22.042969 C 45.761719 -22.566406 45.660156 -23.089844 45.238281 -23.617188 L 41.039062 -30.542969 C 39.78125 -32.644531 37.15625 -33.796875 33.378906 -33.796875 C 30.964844 -33.796875 29.496094 -33.378906 27.082031 -32.222656 C 28.445312 -36.945312 30.125 -41.144531 31.910156 -43.875 Z M 31.382812 -50.695312 C 31.488281 -51.117188 31.59375 -51.640625 31.59375 -52.0625 C 31.59375 -53.320312 30.964844 -54.054688 29.808594 -54.054688 C 27.710938 -54.054688 25.925781 -52.0625 23.828125 -47.546875 C 21.097656 -41.671875 18.472656 -31.382812 18.472656 -26.242188 C 18.472656 -24.035156 19.417969 -22.671875 21.097656 -22.671875 C 22.460938 -22.671875 23.617188 -23.722656 24.5625 -25.925781 L 25.402344 -28.023438 C 26.554688 -30.542969 29.496094 -32.117188 33.273438 -32.117188 C 35.582031 -32.117188 38.207031 -31.277344 39.046875 -30.335938 C 39.257812 -30.019531 39.359375 -29.496094 39.359375 -28.757812 C 39.359375 -26.765625 37.996094 -22.042969 36.527344 -19.101562 C 32.644531 -11.230469 25.402344 -6.296875 17.632812 -6.296875 C 9.132812 -6.296875 3.359375 -13.960938 3.359375 -25.296875 C 3.359375 -35.792969 6.613281 -47.546875 11.859375 -55.628906 C 17.421875 -64.34375 24.5625 -68.75 33.0625 -68.75 C 41.25 -68.75 45.554688 -64.34375 45.554688 -56.15625 C 45.554688 -48.492188 42.71875 -45.34375 35.6875 -45.34375 C 32.433594 -45.34375 30.753906 -46.289062 30.753906 -47.96875 C 30.753906 -48.28125 30.859375 -48.703125 30.964844 -49.121094 Z M 31.382812 -50.695312 "/></g></g></g><g fill="#ffffff" fill-opacity="1"><g transform="translate(108.883612, 241.269023)"><g><path d="M 38.878906 -55.398438 L 50.746094 -55.167969 C 50.953125 -55.167969 51.109375 -55.183594 51.210938 -55.207031 C 51.132812 -55.1875 51.039062 -55.140625 50.929688 -55.0625 C 50.835938 -55 50.777344 -54.949219 50.75 -54.910156 C 50.832031 -55.027344 50.933594 -55.230469 51.054688 -55.519531 L 55 -53.859375 L 50.972656 -55.308594 C 51.4375 -56.601562 51.898438 -58.242188 52.355469 -60.222656 C 52.785156 -62.101562 53 -63.328125 53 -63.898438 C 53 -63.820312 53.03125 -63.710938 53.085938 -63.5625 C 53.105469 -63.511719 53.121094 -63.476562 53.128906 -63.460938 C 53.09375 -63.523438 53.03125 -63.609375 52.945312 -63.726562 L 52.910156 -63.773438 L 47.625 -71.238281 L 51.117188 -73.710938 L 47.695312 -71.144531 C 47.539062 -71.355469 47.410156 -71.511719 47.3125 -71.609375 L 47.332031 -71.605469 C 47.398438 -71.5625 47.464844 -71.527344 47.527344 -71.507812 C 47.503906 -71.515625 47.441406 -71.527344 47.335938 -71.542969 L 47.265625 -71.554688 L 47.199219 -71.570312 C 47.125 -71.585938 44.976562 -71.621094 40.757812 -71.675781 C 39.578125 -71.691406 38.636719 -71.707031 37.9375 -71.714844 L 12.226562 -71.601562 C 11.078125 -71.601562 10.308594 -71.492188 9.917969 -71.273438 C 9.671875 -71.136719 9.402344 -70.761719 9.105469 -70.148438 L 5.25 -72 L 9.183594 -70.316406 C 8.765625 -69.339844 8.359375 -67.933594 7.964844 -66.09375 C 7.5625 -64.222656 7.359375 -62.769531 7.359375 -61.730469 C 7.359375 -61.066406 7.429688 -60.582031 7.570312 -60.277344 C 7.636719 -60.132812 7.765625 -59.992188 7.964844 -59.851562 L 5.476562 -56.367188 L 7.851562 -59.929688 L 14.695312 -55.363281 L 12.324219 -51.804688 L 14.445312 -55.519531 L 15.742188 -54.777344 L 16.148438 -54.371094 C 15.972656 -54.546875 15.753906 -54.703125 15.492188 -54.832031 C 15.078125 -55.039062 14.699219 -55.15625 14.359375 -55.175781 C 14.421875 -55.171875 14.617188 -55.167969 14.949219 -55.167969 L 15.125 -55.167969 L 21.660156 -54.625 L 11.460938 -12.792969 C 11.238281 -11.785156 11.125 -11.058594 11.125 -10.613281 C 11.125 -10.804688 11.058594 -11.007812 10.925781 -11.21875 C 10.890625 -11.277344 10.867188 -11.3125 10.851562 -11.324219 C 10.917969 -11.261719 11.019531 -11.183594 11.160156 -11.089844 L 18.851562 -5.808594 C 19.574219 -5.304688 20.574219 -4.898438 21.851562 -4.585938 C 23.3125 -4.230469 24.929688 -4.050781 26.699219 -4.050781 C 27.351562 -4.050781 27.855469 -4.085938 28.210938 -4.15625 C 28.304688 -4.175781 28.378906 -4.191406 28.425781 -4.210938 C 28.410156 -4.203125 28.382812 -4.191406 28.347656 -4.167969 C 28.21875 -4.085938 28.125 -3.996094 28.066406 -3.894531 C 28.121094 -3.980469 28.183594 -4.171875 28.253906 -4.460938 L 38.179688 -44.613281 L 42.332031 -43.589844 L 38.113281 -44.292969 C 38.226562 -44.972656 38.28125 -45.496094 38.28125 -45.871094 C 38.28125 -45.652344 38.351562 -45.40625 38.492188 -45.125 C 38.515625 -45.078125 38.539062 -45.039062 38.558594 -45.007812 C 38.554688 -45.007812 38.546875 -45.019531 38.53125 -45.042969 C 38.449219 -45.148438 38.316406 -45.308594 38.125 -45.519531 L 28.894531 -55.589844 Z M 38.714844 -46.839844 L 38.796875 -51.117188 L 41.949219 -54.011719 L 44.488281 -51.242188 C 45.257812 -50.386719 45.8125 -49.621094 46.144531 -48.953125 C 46.609375 -48.027344 46.839844 -47 46.839844 -45.871094 C 46.839844 -45.027344 46.746094 -44.03125 46.554688 -42.882812 L 46.527344 -42.722656 L 36.558594 -2.386719 C 35.941406 0.0820312 34.75 1.886719 32.984375 3.023438 C 31.453125 4.011719 29.359375 4.507812 26.699219 4.507812 C 24.242188 4.507812 21.949219 4.246094 19.824219 3.730469 C 17.503906 3.164062 15.566406 2.335938 14.007812 1.246094 L 6.414062 -3.96875 C 3.847656 -5.679688 2.566406 -7.894531 2.566406 -10.613281 C 2.566406 -11.6875 2.761719 -13.089844 3.144531 -14.820312 L 12.160156 -51.789062 L 16.316406 -50.777344 L 15.960938 -46.511719 L 14.59375 -46.625 L 14.949219 -50.890625 L 14.949219 -46.613281 C 14.441406 -46.613281 14.066406 -46.621094 13.824219 -46.632812 C 13.007812 -46.683594 12.285156 -46.867188 11.664062 -47.175781 C 11.097656 -47.460938 10.574219 -47.84375 10.097656 -48.320312 L 13.121094 -51.347656 L 11 -47.632812 L 10.074219 -48.160156 L 3.046875 -52.847656 L 2.988281 -52.886719 C 0.199219 -54.878906 -1.199219 -57.828125 -1.199219 -61.730469 C -1.199219 -63.375 -0.933594 -65.425781 -0.402344 -67.894531 C 0.105469 -70.273438 0.679688 -72.203125 1.316406 -73.6875 L 1.351562 -73.769531 L 1.390625 -73.851562 C 2.46875 -76.09375 3.917969 -77.726562 5.742188 -78.746094 C 7.429688 -79.6875 9.578125 -80.160156 12.191406 -80.160156 L 38.054688 -80.273438 C 38.761719 -80.261719 39.699219 -80.25 40.871094 -80.234375 C 43.9375 -80.191406 45.820312 -80.164062 46.515625 -80.148438 C 47.609375 -80.121094 48.394531 -80.058594 48.878906 -79.960938 L 48.039062 -75.765625 L 48.742188 -79.988281 C 50.03125 -79.773438 51.144531 -79.351562 52.082031 -78.726562 C 52.914062 -78.171875 53.734375 -77.355469 54.542969 -76.277344 L 54.578125 -76.230469 L 59.859375 -68.765625 L 56.367188 -66.296875 L 59.792969 -68.863281 C 60.96875 -67.289062 61.558594 -65.636719 61.558594 -63.898438 C 61.558594 -62.679688 61.273438 -60.816406 60.695312 -58.304688 C 60.164062 -55.992188 59.605469 -54.027344 59.023438 -52.40625 L 58.988281 -52.300781 L 58.941406 -52.195312 C 58.160156 -50.339844 57.128906 -48.960938 55.847656 -48.058594 C 54.472656 -47.09375 52.714844 -46.613281 50.582031 -46.613281 Z M 9.925781 -53.6875 C 8.613281 -53.6875 7.574219 -53.738281 6.804688 -53.84375 C 5.464844 -54.023438 4.347656 -54.425781 3.453125 -55.046875 C 2.277344 -55.863281 1.484375 -56.992188 1.074219 -58.4375 C 0.851562 -59.226562 0.742188 -60.210938 0.742188 -61.386719 C 0.742188 -64.070312 1.253906 -67.199219 2.277344 -70.78125 C 3.027344 -73.367188 4.085938 -75.242188 5.449219 -76.410156 C 6.953125 -77.691406 8.976562 -78.332031 11.523438 -78.332031 L 40.035156 -78.449219 C 42.660156 -78.449219 44.550781 -78.417969 45.707031 -78.355469 C 47.46875 -78.261719 48.847656 -78.042969 49.84375 -77.691406 C 51.640625 -77.058594 52.886719 -75.921875 53.574219 -74.285156 C 53.953125 -73.386719 54.144531 -72.207031 54.144531 -70.746094 C 54.144531 -69.59375 53.921875 -67.980469 53.476562 -65.910156 C 53.0625 -63.980469 52.597656 -62.269531 52.078125 -60.78125 C 51.714844 -59.6875 51.339844 -58.78125 50.945312 -58.0625 C 50.367188 -56.992188 49.65625 -56.128906 48.8125 -55.472656 C 47.921875 -54.78125 46.882812 -54.308594 45.6875 -54.054688 C 44.890625 -53.886719 43.925781 -53.800781 42.789062 -53.800781 L 27.351562 -53.914062 L 27.386719 -58.195312 L 29.070312 -62.125 L 33.066406 -60.414062 C 35.03125 -59.613281 36.457031 -58.816406 37.339844 -58.019531 C 38.804688 -56.695312 39.539062 -55.003906 39.539062 -52.945312 C 39.539062 -51.953125 39.261719 -50.410156 38.710938 -48.320312 L 29.488281 -10.398438 C 29.191406 -9.128906 28.867188 -8.101562 28.515625 -7.324219 C 27.945312 -6.050781 27.160156 -5.042969 26.164062 -4.300781 C 25.207031 -3.589844 24.046875 -3.117188 22.683594 -2.890625 C 21.851562 -2.75 20.757812 -2.679688 19.398438 -2.679688 C 15.902344 -2.679688 12.875 -3.175781 10.320312 -4.167969 C 8.839844 -4.742188 7.632812 -5.460938 6.703125 -6.324219 C 5.238281 -7.679688 4.507812 -9.261719 4.507812 -11.066406 C 4.507812 -11.546875 4.5625 -12.042969 4.675781 -12.5625 C 4.734375 -12.824219 4.910156 -13.546875 5.207031 -14.730469 L 12.5 -45.046875 C 12.761719 -46.15625 13.339844 -48.289062 14.242188 -51.449219 C 15.195312 -54.800781 15.976562 -57.410156 16.582031 -59.28125 L 20.652344 -57.964844 L 20.652344 -53.6875 Z M 9.925781 -62.246094 L 26.535156 -62.246094 L 24.722656 -56.648438 C 24.148438 -54.871094 23.398438 -52.355469 22.472656 -49.105469 C 21.609375 -46.074219 21.058594 -44.050781 20.820312 -43.042969 L 13.507812 -12.65625 C 13.234375 -11.554688 13.078125 -10.917969 13.039062 -10.742188 C 13.054688 -10.824219 13.066406 -10.933594 13.066406 -11.066406 C 13.066406 -11.484375 12.976562 -11.863281 12.796875 -12.210938 C 12.703125 -12.382812 12.613281 -12.515625 12.515625 -12.601562 C 12.648438 -12.480469 12.949219 -12.328125 13.414062 -12.148438 C 14.976562 -11.542969 16.96875 -11.238281 19.398438 -11.238281 C 20.285156 -11.238281 20.910156 -11.269531 21.273438 -11.332031 C 21.324219 -11.339844 21.363281 -11.347656 21.394531 -11.355469 L 21.378906 -11.347656 C 21.269531 -11.308594 21.160156 -11.246094 21.046875 -11.160156 C 20.921875 -11.066406 20.816406 -10.960938 20.730469 -10.847656 L 20.710938 -10.832031 C 20.835938 -11.113281 20.988281 -11.640625 21.171875 -12.421875 L 30.4375 -50.496094 C 30.796875 -51.875 30.980469 -52.691406 30.980469 -52.945312 C 30.980469 -52.808594 31.023438 -52.628906 31.109375 -52.410156 C 31.234375 -52.101562 31.398438 -51.851562 31.605469 -51.664062 C 31.46875 -51.789062 30.828125 -52.085938 29.691406 -52.550781 L 25.699219 -54.261719 L 27.417969 -62.472656 L 42.789062 -62.359375 C 43.324219 -62.359375 43.695312 -62.378906 43.90625 -62.425781 C 43.820312 -62.40625 43.703125 -62.339844 43.558594 -62.226562 C 43.480469 -62.167969 43.417969 -62.109375 43.375 -62.050781 L 43.371094 -62.050781 C 43.386719 -62.074219 43.40625 -62.105469 43.425781 -62.140625 C 43.578125 -62.421875 43.765625 -62.90625 43.996094 -63.59375 C 44.398438 -64.75 44.769531 -66.121094 45.109375 -67.703125 C 45.425781 -69.183594 45.585938 -70.199219 45.585938 -70.746094 C 45.585938 -71.039062 45.578125 -71.238281 45.566406 -71.351562 C 45.578125 -71.261719 45.617188 -71.136719 45.6875 -70.96875 C 45.84375 -70.59375 46.082031 -70.269531 46.398438 -69.996094 C 46.609375 -69.8125 46.8125 -69.683594 47.003906 -69.617188 C 46.488281 -69.796875 44.179688 -69.890625 40.066406 -69.890625 L 11.523438 -69.773438 C 11.125 -69.773438 10.847656 -69.753906 10.695312 -69.714844 C 10.789062 -69.738281 10.890625 -69.800781 11.007812 -69.902344 C 11.054688 -69.941406 11.089844 -69.976562 11.109375 -70.003906 C 11.089844 -69.976562 11.058594 -69.921875 11.019531 -69.84375 C 10.859375 -69.53125 10.6875 -69.058594 10.503906 -68.429688 C 9.703125 -65.617188 9.300781 -63.269531 9.300781 -61.386719 C 9.300781 -61.128906 9.304688 -60.925781 9.320312 -60.777344 L 9.3125 -60.765625 C 9.164062 -61.292969 8.835938 -61.730469 8.332031 -62.078125 C 8.152344 -62.203125 7.984375 -62.289062 7.824219 -62.339844 L 7.804688 -62.347656 C 7.84375 -62.339844 7.894531 -62.332031 7.953125 -62.324219 C 8.34375 -62.269531 9 -62.246094 9.925781 -62.246094 Z M 9.925781 -62.246094 "/></g></g></g><g fill="#db0377" fill-opacity="1"><g transform="translate(108.883612, 241.269023)"><g><path d="M 38.796875 -51.117188 L 50.664062 -50.890625 C 53.058594 -50.890625 54.085938 -51.691406 55 -53.859375 C 56.027344 -56.710938 57.28125 -62.074219 57.28125 -63.898438 C 57.28125 -64.8125 57.050781 -65.382812 56.367188 -66.296875 L 51.117188 -73.710938 C 50.09375 -75.082031 49.40625 -75.539062 48.039062 -75.765625 C 47.46875 -75.878906 46.328125 -75.878906 37.996094 -75.992188 L 12.210938 -75.878906 C 8.445312 -75.878906 6.617188 -74.851562 5.25 -72 C 4.222656 -69.605469 3.082031 -64.46875 3.082031 -61.730469 C 3.082031 -59.105469 3.878906 -57.507812 5.476562 -56.367188 L 12.324219 -51.804688 L 13.121094 -51.347656 C 13.351562 -51.117188 13.578125 -51.003906 13.578125 -51.003906 C 13.808594 -50.890625 14.261719 -50.890625 14.949219 -50.890625 L 16.316406 -50.777344 L 7.300781 -13.808594 C 7.074219 -12.78125 6.847656 -11.296875 6.847656 -10.613281 C 6.847656 -9.355469 7.417969 -8.445312 8.785156 -7.53125 L 16.429688 -2.28125 C 18.714844 -0.683594 22.480469 0.226562 26.699219 0.226562 C 30.351562 0.226562 31.722656 -0.683594 32.40625 -3.421875 L 42.332031 -43.589844 C 42.445312 -44.273438 42.5625 -45.300781 42.5625 -45.871094 C 42.5625 -46.78125 42.332031 -47.238281 41.304688 -48.378906 Z M 9.925781 -57.964844 C 5.707031 -57.964844 5.019531 -58.421875 5.019531 -61.386719 C 5.019531 -63.671875 5.476562 -66.410156 6.390625 -69.605469 C 7.417969 -73.140625 8.558594 -74.054688 11.523438 -74.054688 L 40.050781 -74.167969 C 49.292969 -74.167969 49.863281 -73.941406 49.863281 -70.746094 C 49.863281 -69.035156 48.949219 -64.8125 48.039062 -62.1875 C 46.898438 -58.765625 45.984375 -58.078125 42.789062 -58.078125 L 27.386719 -58.195312 L 31.378906 -56.480469 C 34.460938 -55.226562 35.257812 -54.542969 35.257812 -52.945312 C 35.257812 -52.261719 35.144531 -51.574219 34.574219 -49.40625 L 25.332031 -11.410156 C 24.417969 -7.53125 23.621094 -6.960938 19.398438 -6.960938 C 13.464844 -6.960938 8.785156 -8.785156 8.785156 -11.066406 C 8.785156 -11.410156 8.785156 -11.410156 9.355469 -13.691406 L 16.660156 -44.042969 C 17.117188 -45.984375 19.398438 -54.085938 20.652344 -57.964844 Z M 9.925781 -57.964844 "/></g></g></g><g fill="#000000" fill-opacity="1"><g transform="translate(170.812757, 175.616604)"><g><path d="M 5.28125 0.078125 C 4.40625 0.078125 3.613281 -0.113281 2.90625 -0.5 C 2.207031 -0.894531 1.65625 -1.429688 1.25 -2.109375 C 0.851562 -2.796875 0.65625 -3.566406 0.65625 -4.421875 C 0.65625 -5.273438 0.851562 -6.046875 1.25 -6.734375 C 1.65625 -7.421875 2.210938 -7.957031 2.921875 -8.34375 C 3.628906 -8.726562 4.421875 -8.921875 5.296875 -8.921875 C 5.953125 -8.921875 6.554688 -8.8125 7.109375 -8.59375 C 7.671875 -8.375 8.144531 -8.054688 8.53125 -7.640625 L 7.9375 -7.046875 C 7.25 -7.742188 6.378906 -8.09375 5.328125 -8.09375 C 4.617188 -8.09375 3.976562 -7.929688 3.40625 -7.609375 C 2.832031 -7.285156 2.382812 -6.84375 2.0625 -6.28125 C 1.738281 -5.726562 1.578125 -5.109375 1.578125 -4.421875 C 1.578125 -3.734375 1.738281 -3.109375 2.0625 -2.546875 C 2.382812 -1.992188 2.832031 -1.554688 3.40625 -1.234375 C 3.976562 -0.921875 4.617188 -0.765625 5.328125 -0.765625 C 6.390625 -0.765625 7.257812 -1.113281 7.9375 -1.8125 L 8.53125 -1.21875 C 8.144531 -0.800781 7.671875 -0.476562 7.109375 -0.25 C 6.546875 -0.03125 5.9375 0.078125 5.28125 0.078125 Z M 5.28125 0.078125 "/></g></g></g><g fill="#000000" fill-opacity="1"><g transform="translate(184.650197, 175.616604)"><g><path d="M 5 0.078125 C 3.851562 0.078125 2.957031 -0.25 2.3125 -0.90625 C 1.675781 -1.5625 1.359375 -2.519531 1.359375 -3.78125 L 1.359375 -8.84375 L 2.296875 -8.84375 L 2.296875 -3.8125 C 2.296875 -2.789062 2.523438 -2.023438 2.984375 -1.515625 C 3.453125 -1.015625 4.125 -0.765625 5 -0.765625 C 5.882812 -0.765625 6.554688 -1.015625 7.015625 -1.515625 C 7.484375 -2.023438 7.71875 -2.789062 7.71875 -3.8125 L 7.71875 -8.84375 L 8.640625 -8.84375 L 8.640625 -3.78125 C 8.640625 -2.519531 8.316406 -1.5625 7.671875 -0.90625 C 7.035156 -0.25 6.144531 0.078125 5 0.078125 Z M 5 0.078125 "/></g></g></g><g fill="#000000" fill-opacity="1"><g transform="translate(199.409836, 175.616604)"><g><path d="M 1.4375 -8.84375 L 2.375 -8.84375 L 2.375 -0.8125 L 7.328125 -0.8125 L 7.328125 0 L 1.4375 0 Z M 1.4375 -8.84375 "/></g></g></g><g fill="#000000" fill-opacity="1"><g transform="translate(211.605003, 175.616604)"><g><path d="M 3.15625 -8.046875 L 0.046875 -8.046875 L 0.046875 -8.84375 L 7.203125 -8.84375 L 7.203125 -8.046875 L 4.09375 -8.046875 L 4.09375 0 L 3.15625 0 Z M 3.15625 -8.046875 "/></g></g></g><g fill="#000000" fill-opacity="1"><g transform="translate(223.610678, 175.616604)"><g><path d="M 5 0.078125 C 3.851562 0.078125 2.957031 -0.25 2.3125 -0.90625 C 1.675781 -1.5625 1.359375 -2.519531 1.359375 -3.78125 L 1.359375 -8.84375 L 2.296875 -8.84375 L 2.296875 -3.8125 C 2.296875 -2.789062 2.523438 -2.023438 2.984375 -1.515625 C 3.453125 -1.015625 4.125 -0.765625 5 -0.765625 C 5.882812 -0.765625 6.554688 -1.015625 7.015625 -1.515625 C 7.484375 -2.023438 7.71875 -2.789062 7.71875 -3.8125 L 7.71875 -8.84375 L 8.640625 -8.84375 L 8.640625 -3.78125 C 8.640625 -2.519531 8.316406 -1.5625 7.671875 -0.90625 C 7.035156 -0.25 6.144531 0.078125 5 0.078125 Z M 5 0.078125 "/></g></g></g><g fill="#000000" fill-opacity="1"><g transform="translate(238.370317, 175.616604)"><g><path d="M 7.484375 0 L 5.453125 -2.84375 C 5.234375 -2.820312 5 -2.8125 4.75 -2.8125 L 2.375 -2.8125 L 2.375 0 L 1.4375 0 L 1.4375 -8.84375 L 4.75 -8.84375 C 5.882812 -8.84375 6.769531 -8.570312 7.40625 -8.03125 C 8.050781 -7.5 8.375 -6.757812 8.375 -5.8125 C 8.375 -5.125 8.195312 -4.539062 7.84375 -4.0625 C 7.488281 -3.582031 6.988281 -3.238281 6.34375 -3.03125 L 8.5 0 Z M 4.734375 -3.609375 C 5.609375 -3.609375 6.273438 -3.800781 6.734375 -4.1875 C 7.203125 -4.570312 7.4375 -5.113281 7.4375 -5.8125 C 7.4375 -6.53125 7.203125 -7.082031 6.734375 -7.46875 C 6.273438 -7.851562 5.609375 -8.046875 4.734375 -8.046875 L 2.375 -8.046875 L 2.375 -3.609375 Z M 4.734375 -3.609375 "/></g></g></g><g fill="#000000" fill-opacity="1"><g transform="translate(252.258294, 175.616604)"><g><path d="M 6.984375 -2.359375 L 2.0625 -2.359375 L 1 0 L 0.03125 0 L 4.0625 -8.84375 L 5 -8.84375 L 9.03125 0 L 8.046875 0 Z M 6.65625 -3.125 L 4.53125 -7.875 L 2.40625 -3.125 Z M 6.65625 -3.125 "/></g></g></g><g fill="#000000" fill-opacity="1"><g transform="translate(266.070465, 175.616604)"><g><path d="M 1.4375 -8.84375 L 2.375 -8.84375 L 2.375 -0.8125 L 7.328125 -0.8125 L 7.328125 0 L 1.4375 0 Z M 1.4375 -8.84375 "/></g></g></g><g fill="#000000" fill-opacity="1"><g transform="translate(170.812757, 194.366603)"><g><path d="M 3.15625 -8.046875 L 0.046875 -8.046875 L 0.046875 -8.84375 L 7.203125 -8.84375 L 7.203125 -8.046875 L 4.09375 -8.046875 L 4.09375 0 L 3.15625 0 Z M 3.15625 -8.046875 "/></g></g></g><g fill="#000000" fill-opacity="1"><g transform="translate(182.818433, 194.366603)"><g><path d="M 8.828125 -8.84375 L 8.828125 0 L 7.90625 0 L 7.90625 -4.078125 L 2.375 -4.078125 L 2.375 0 L 1.4375 0 L 1.4375 -8.84375 L 2.375 -8.84375 L 2.375 -4.90625 L 7.90625 -4.90625 L 7.90625 -8.84375 Z M 8.828125 -8.84375 "/></g></g></g><g fill="#000000" fill-opacity="1"><g transform="translate(197.843357, 194.366603)"><g><path d="M 7.703125 -0.8125 L 7.703125 0 L 1.4375 0 L 1.4375 -8.84375 L 7.515625 -8.84375 L 7.515625 -8.046875 L 2.375 -8.046875 L 2.375 -4.890625 L 6.953125 -4.890625 L 6.953125 -4.09375 L 2.375 -4.09375 L 2.375 -0.8125 Z M 7.703125 -0.8125 "/></g></g></g><g fill="#000000" fill-opacity="1"><g transform="translate(211.049152, 194.366603)"><g><path d="M 5.3125 0.078125 C 4.4375 0.078125 3.640625 -0.113281 2.921875 -0.5 C 2.210938 -0.894531 1.65625 -1.429688 1.25 -2.109375 C 0.851562 -2.796875 0.65625 -3.566406 0.65625 -4.421875 C 0.65625 -5.273438 0.851562 -6.039062 1.25 -6.71875 C 1.65625 -7.40625 2.210938 -7.941406 2.921875 -8.328125 C 3.640625 -8.722656 4.4375 -8.921875 5.3125 -8.921875 C 6.1875 -8.921875 6.972656 -8.726562 7.671875 -8.34375 C 8.378906 -7.957031 8.9375 -7.421875 9.34375 -6.734375 C 9.75 -6.046875 9.953125 -5.273438 9.953125 -4.421875 C 9.953125 -3.566406 9.75 -2.796875 9.34375 -2.109375 C 8.9375 -1.429688 8.378906 -0.894531 7.671875 -0.5 C 6.972656 -0.113281 6.1875 0.078125 5.3125 0.078125 Z M 5.3125 -0.765625 C 6.007812 -0.765625 6.640625 -0.921875 7.203125 -1.234375 C 7.765625 -1.546875 8.207031 -1.984375 8.53125 -2.546875 C 8.851562 -3.109375 9.015625 -3.734375 9.015625 -4.421875 C 9.015625 -5.109375 8.851562 -5.734375 8.53125 -6.296875 C 8.207031 -6.859375 7.765625 -7.296875 7.203125 -7.609375 C 6.640625 -7.929688 6.007812 -8.09375 5.3125 -8.09375 C 4.613281 -8.09375 3.976562 -7.929688 3.40625 -7.609375 C 2.832031 -7.296875 2.382812 -6.859375 2.0625 -6.296875 C 1.738281 -5.734375 1.578125 -5.109375 1.578125 -4.421875 C 1.578125 -3.734375 1.738281 -3.109375 2.0625 -2.546875 C 2.382812 -1.984375 2.832031 -1.546875 3.40625 -1.234375 C 3.976562 -0.921875 4.613281 -0.765625 5.3125 -0.765625 Z M 5.3125 -0.765625 "/></g></g></g><g fill="#000000" fill-opacity="1"><g transform="translate(226.402533, 194.366603)"><g><path d="M 7.484375 0 L 5.453125 -2.84375 C 5.234375 -2.820312 5 -2.8125 4.75 -2.8125 L 2.375 -2.8125 L 2.375 0 L 1.4375 0 L 1.4375 -8.84375 L 4.75 -8.84375 C 5.882812 -8.84375 6.769531 -8.570312 7.40625 -8.03125 C 8.050781 -7.5 8.375 -6.757812 8.375 -5.8125 C 8.375 -5.125 8.195312 -4.539062 7.84375 -4.0625 C 7.488281 -3.582031 6.988281 -3.238281 6.34375 -3.03125 L 8.5 0 Z M 4.734375 -3.609375 C 5.609375 -3.609375 6.273438 -3.800781 6.734375 -4.1875 C 7.203125 -4.570312 7.4375 -5.113281 7.4375 -5.8125 C 7.4375 -6.53125 7.203125 -7.082031 6.734375 -7.46875 C 6.273438 -7.851562 5.609375 -8.046875 4.734375 -8.046875 L 2.375 -8.046875 L 2.375 -3.609375 Z M 4.734375 -3.609375 "/></g></g></g><g fill="#000000" fill-opacity="1"><g transform="translate(240.290509, 194.366603)"><g><path d="M 4.46875 -3.0625 L 4.46875 0 L 3.546875 0 L 3.546875 -3.0625 L 0.015625 -8.84375 L 1.015625 -8.84375 L 4.046875 -3.875 L 7.078125 -8.84375 L 8.015625 -8.84375 Z M 4.46875 -3.0625 "/></g></g></g><g fill="#000000" fill-opacity="1"><g transform="translate(253.078377, 194.366603)"><g/></g></g><g fill="#db0377" fill-opacity="1"><g transform="translate(170.812757, 213.866602)"><g><path d="M 9.09375 0 L 9.09375 -5.3125 L 6.484375 -0.9375 L 5.5625 -0.9375 L 2.96875 -5.203125 L 2.96875 0 L 1.046875 0 L 1.046875 -8.84375 L 2.75 -8.84375 L 6.0625 -3.34375 L 9.3125 -8.84375 L 11 -8.84375 L 11.015625 0 Z M 9.09375 0 "/></g></g></g><g fill="#db0377" fill-opacity="1"><g transform="translate(188.263794, 213.866602)"><g><path d="M 6.875 -1.890625 L 2.765625 -1.890625 L 1.984375 0 L -0.109375 0 L 3.828125 -8.84375 L 5.859375 -8.84375 L 9.8125 0 L 7.65625 0 Z M 6.234375 -3.453125 L 4.828125 -6.84375 L 3.421875 -3.453125 Z M 6.234375 -3.453125 "/></g></g></g><g fill="#db0377" fill-opacity="1"><g transform="translate(203.327216, 213.866602)"><g><path d="M 6.6875 0 L 4.984375 -2.46875 L 3.09375 -2.46875 L 3.09375 0 L 1.046875 0 L 1.046875 -8.84375 L 4.875 -8.84375 C 5.664062 -8.84375 6.347656 -8.710938 6.921875 -8.453125 C 7.492188 -8.191406 7.9375 -7.820312 8.25 -7.34375 C 8.5625 -6.863281 8.71875 -6.296875 8.71875 -5.640625 C 8.71875 -4.984375 8.5625 -4.414062 8.25 -3.9375 C 7.9375 -3.457031 7.488281 -3.09375 6.90625 -2.84375 L 8.890625 0 Z M 6.65625 -5.640625 C 6.65625 -6.140625 6.492188 -6.519531 6.171875 -6.78125 C 5.847656 -7.050781 5.378906 -7.1875 4.765625 -7.1875 L 3.09375 -7.1875 L 3.09375 -4.09375 L 4.765625 -4.09375 C 5.378906 -4.09375 5.847656 -4.226562 6.171875 -4.5 C 6.492188 -4.769531 6.65625 -5.148438 6.65625 -5.640625 Z M 6.65625 -5.640625 "/></g></g></g><g fill="#db0377" fill-opacity="1"><g transform="translate(217.999021, 213.866602)"><g><path d="M 4.265625 -3.46875 L 3.078125 -2.234375 L 3.078125 0 L 1.046875 0 L 1.046875 -8.84375 L 3.078125 -8.84375 L 3.078125 -4.71875 L 7 -8.84375 L 9.28125 -8.84375 L 5.609375 -4.90625 L 9.5 0 L 7.109375 0 Z M 4.265625 -3.46875 "/></g></g></g><g fill="#db0377" fill-opacity="1"><g transform="translate(232.733998, 213.866602)"><g><path d="M 7.90625 -1.640625 L 7.90625 0 L 1.046875 0 L 1.046875 -8.84375 L 7.734375 -8.84375 L 7.734375 -7.203125 L 3.078125 -7.203125 L 3.078125 -5.28125 L 7.1875 -5.28125 L 7.1875 -3.6875 L 3.078125 -3.6875 L 3.078125 -1.640625 Z M 7.90625 -1.640625 "/></g></g></g><g fill="#db0377" fill-opacity="1"><g transform="translate(246.597302, 213.866602)"><g><path d="M 2.875 -7.1875 L 0.046875 -7.1875 L 0.046875 -8.84375 L 7.765625 -8.84375 L 7.765625 -7.1875 L 4.9375 -7.1875 L 4.9375 0 L 2.875 0 Z M 2.875 -7.1875 "/></g></g></g><g fill="#db0377" fill-opacity="1"><g transform="translate(259.791068, 213.866602)"><g><path d="M 1.046875 -8.84375 L 3.09375 -8.84375 L 3.09375 0 L 1.046875 0 Z M 1.046875 -8.84375 "/></g></g></g><g fill="#db0377" fill-opacity="1"><g transform="translate(269.321307, 213.866602)"><g><path d="M 9.171875 -8.84375 L 9.171875 0 L 7.484375 0 L 3.078125 -5.375 L 3.078125 0 L 1.046875 0 L 1.046875 -8.84375 L 2.75 -8.84375 L 7.140625 -3.46875 L 7.140625 -8.84375 Z M 9.171875 -8.84375 "/></g></g></g><g fill="#db0377" fill-opacity="1"><g transform="translate(284.915311, 213.866602)"><g><path d="M 7.03125 -4.5625 L 8.90625 -4.5625 L 8.90625 -0.96875 C 8.414062 -0.613281 7.851562 -0.335938 7.21875 -0.140625 C 6.59375 0.0546875 5.960938 0.15625 5.328125 0.15625 C 4.398438 0.15625 3.570312 -0.0390625 2.84375 -0.4375 C 2.113281 -0.832031 1.539062 -1.375 1.125 -2.0625 C 0.707031 -2.757812 0.5 -3.546875 0.5 -4.421875 C 0.5 -5.296875 0.707031 -6.082031 1.125 -6.78125 C 1.539062 -7.476562 2.117188 -8.019531 2.859375 -8.40625 C 3.597656 -8.800781 4.429688 -9 5.359375 -9 C 6.128906 -9 6.832031 -8.867188 7.46875 -8.609375 C 8.101562 -8.347656 8.632812 -7.96875 9.0625 -7.46875 L 7.75 -6.25 C 7.113281 -6.914062 6.347656 -7.25 5.453125 -7.25 C 4.890625 -7.25 4.390625 -7.128906 3.953125 -6.890625 C 3.515625 -6.660156 3.171875 -6.332031 2.921875 -5.90625 C 2.679688 -5.476562 2.5625 -4.984375 2.5625 -4.421875 C 2.5625 -3.878906 2.679688 -3.390625 2.921875 -2.953125 C 3.171875 -2.523438 3.507812 -2.191406 3.9375 -1.953125 C 4.375 -1.710938 4.875 -1.59375 5.4375 -1.59375 C 6.03125 -1.59375 6.5625 -1.71875 7.03125 -1.96875 Z M 7.03125 -4.5625 "/></g></g></g><g fill="#eb1588" fill-opacity="1"><g transform="translate(300.047124, 213.866602)"><g/></g></g></svg>